# xmcd CD database file
#
# Track frame offsets:
#	150
#	12748
#	24755
#	41108
#	56313
#	71985
#	83713
#	95702
#	116715
#	147993
#	165074
#	186325
#	200709
#	214988
#	233169
#	251964
#	270064
#	285766
#	305895
#	317950
#
# Disc length: 4483 seconds
#
# Revision: 4
# Processed by: cddbd v1.5.2PL0 Copyright (c) Steve Scherf et al.
# Submitted via: CDex 1.70beta2
#
DISCID=26118114
DTITLE=Nina Simone - Songs To Sing - The Best Of 1
DYEAR=2006
DGENRE=Jazz
TTITLE0=Don't Let Me Be Misunderstood
TTITLE1=See Line Woman
TTITLE2=My Baby Just Cares For Me
TTITLE3=Love Me Or Leave Me
TTITLE4=Strange Fruit
TTITLE5=I Put A Spell On You
TTITLE6=Break Down and Let It All Out
TTITLE7=Ain't Got No - I Got Life (live)
TTITLE8=The House Of The Rising Sun (live)
TTITLE9=Do What You Gotta Do (live)
TTITLE10=Mississippi Goddam (live)
TTITLE11=Don't Smoke In Bed
TTITLE12=He's Got The Whole World In His Hands
TTITLE13=Mood Indigo
TTITLE14=I Love You Porgy
TTITLE15=For All We Know
TTITLE16=Black Is The Colour Of My True Love's Hair
TTITLE17=Four Women
TTITLE18=Nobody Knows You When You're Down and Out
TTITLE19=No Opportunity Necessary, No Experience Needed
EXTD=YEAR: 2006
EXTT0=
EXTT1=
EXTT2=
EXTT3=
EXTT4=
EXTT5=
EXTT6=
EXTT7=
EXTT8=
EXTT9=
EXTT10=
EXTT11=
EXTT12=
EXTT13=
EXTT14=
EXTT15=
EXTT16=
EXTT17=
EXTT18=
EXTT19=
PLAYORDER=
